<svg xmlns="http://www.w3.org/2000/svg" viewBox="1 0 30 24" shape-rendering="crispEdges">
  <rect x="4" y="1" width="2" height="2" fill="#2a7a3a"/>
  <rect x="8" y="1" width="2" height="2" fill="#2a7a3a"/>
  <rect x="12" y="1" width="2" height="2" fill="#2a7a3a"/>
  <rect x="16" y="2" width="2" height="2" fill="#2a7a3a"/>
  <rect x="3" y="3" width="16" height="2" fill="#3a9a4e"/>
  <rect x="2" y="5" width="18" height="11" fill="#3a9a4e"/>
  <rect x="3" y="16" width="16" height="5" fill="#3a9a4e"/>
  <rect x="4" y="21" width="14" height="2" fill="#2d7a38"/>
  <rect x="19" y="10" width="9" height="2" fill="#3a9a4e"/>
  <rect x="19" y="12" width="11" height="2" fill="#3a9a4e"/>
  <rect x="19" y="14" width="12" height="3" fill="#3a9a4e"/>
  <rect x="19" y="17" width="12" height="1" fill="#2d7a38"/>
  <rect x="29" y="10" width="1" height="2" fill="#1a5a26"/>
  <rect x="19" y="18" width="12" height="2" fill="#0a0a0a"/>
  <rect x="20" y="18" width="1" height="2" fill="#e8e8d0"/>
  <rect x="23" y="18" width="1" height="2" fill="#e8e8d0"/>
  <rect x="26" y="18" width="1" height="2" fill="#e8e8d0"/>
  <rect x="29" y="18" width="1" height="2" fill="#e8e8d0"/>
  <rect x="19" y="20" width="11" height="2" fill="#3a9a4e"/>
  <rect x="17" y="22" width="9" height="1" fill="#2d7a38"/>
  <rect x="21" y="19" width="1" height="1" fill="#e8e8d0"/>
  <rect x="24" y="19" width="1" height="1" fill="#e8e8d0"/>
  <rect x="27" y="19" width="1" height="1" fill="#e8e8d0"/>
  <rect x="4" y="6" width="5" height="5" fill="#e8e8d0"/>
  <rect x="6" y="8" width="2" height="2" fill="#111"/>
  <rect x="7" y="9" width="1" height="1" fill="#444"/>
  <rect x="10" y="6" width="6" height="6" fill="#e8e8d0"/>
  <rect x="12" y="8" width="3" height="3" fill="#111"/>
  <rect x="13" y="9" width="1" height="1" fill="#444"/>
</svg>
